<svg width="32" height="32" viewBox="0 0 32 32" fill="none" xmlns="http://www.w3.org/2000/svg">
<path fill-rule="evenodd" clip-rule="evenodd" d="M7.78668 2.87474C5.88673 3.13063 4.44684 4.08604 3.52023 5.70567C2.81292 6.94194 2.82668 6.73692 2.82668 15.9993C2.82668 25.2186 2.81324 25.0121 3.49505 26.2784C3.87884 26.9911 4.91799 28.0358 5.6622 28.4573C6.95596 29.19 6.70455 29.1727 16 29.1727C23.7972 29.1727 24.421 29.1592 25.0667 28.977C26.0545 28.6983 26.7251 28.3066 27.4706 27.5727C28.2322 26.823 28.7211 26.0105 28.9843 25.0571C29.1578 24.4289 29.1733 23.685 29.1733 15.9993C29.1733 8.2021 29.1599 7.57831 28.9777 6.93266C28.699 5.94482 28.3073 5.2742 27.5733 4.52871C26.8448 3.78866 26.0345 3.2917 25.1141 3.02066C24.5374 2.85084 23.7509 2.83218 16.4267 2.81479C11.9973 2.80423 8.10935 2.83122 7.78668 2.87474ZM15.36 7.6725C14.1957 7.90748 13.4122 8.91548 13.1162 10.5593C12.8928 11.7993 13.1981 13.8312 13.7787 14.9693C13.915 15.2364 13.9453 15.3643 13.8554 15.293C12.0138 13.8323 10.6714 13.2857 9.08076 13.3491C7.40716 13.4157 6.50657 14.1494 6.41943 15.5171C6.38177 16.1091 6.41932 16.2969 6.69217 16.88C7.25559 18.084 8.05079 18.7597 9.51852 19.282C11.0303 19.8199 13.3572 19.6216 14.7851 18.8331C15.1831 18.6133 15.2501 18.6051 15.5135 18.743C15.7225 18.8524 15.7825 18.9449 15.7283 19.0738C15.2897 20.1167 14.8804 21.8787 14.7684 23.206C14.6999 24.0202 14.7101 24.0825 14.9609 24.374C15.1629 24.6089 15.3181 24.682 15.6153 24.682C16.2337 24.682 16.4351 24.3955 16.5387 23.3676C16.654 22.2239 16.8067 21.4697 17.142 20.3895L17.418 19.4997L17.8024 19.5613C19.6903 19.8647 21.6997 19.6997 22.872 19.1451C24.0603 18.583 25.1167 17.1607 25.2546 15.9375C25.4177 14.4905 24.2879 13.3269 22.7273 13.3345C21.2835 13.3415 19.3719 14.1823 18.0651 15.385L17.6236 15.7914L17.9253 14.9088C18.4162 13.4733 18.5936 12.3786 18.5338 11.1552C18.4414 9.26578 17.7627 8.10407 16.5406 7.74354C15.9173 7.55975 15.9187 7.55975 15.36 7.6725ZM15.3919 9.62599C15.0077 10.0479 14.9055 10.3654 14.852 11.3029C14.8112 12.0177 14.85 12.4184 15.028 13.1227C15.2503 14.0026 15.736 14.9767 15.9429 14.9577C16.2226 14.9319 16.7594 12.726 16.768 11.5675C16.7776 10.263 16.4045 9.38599 15.84 9.38599C15.7138 9.38599 15.5121 9.49404 15.3919 9.62599ZM8.57601 15.1916C8.14263 15.3803 8.07415 15.5937 8.28108 16.1109C8.49612 16.6484 9.24897 17.3169 9.89921 17.5478C10.6868 17.8275 12.1925 17.8706 12.9341 17.6346L13.5482 17.4393L12.7208 16.719C11.7793 15.8995 10.7664 15.3304 9.94145 15.1577C9.22348 15.0073 8.98572 15.0133 8.57601 15.1916ZM21.4376 15.3888C20.4848 15.7136 19.7415 16.2148 18.9806 17.045C18.2044 17.8921 18.234 17.9284 19.7063 17.932C21.3656 17.9361 22.2689 17.6465 22.924 16.9004C23.4512 16.2998 23.6368 15.5721 23.3387 15.274C23.1372 15.0725 22.1989 15.1291 21.4376 15.3888Z" fill="#00BC7D"/>
<path fill-rule="evenodd" clip-rule="evenodd" d="M15.3529 7.65151C14.1886 7.8865 13.4051 8.8945 13.1091 10.5383C12.8857 11.7783 13.191 13.8102 13.7716 14.9484C13.9079 15.2155 13.9382 15.3434 13.8483 15.272C12.0067 13.8113 10.6643 13.2647 9.07365 13.3281C7.40005 13.3948 6.49947 14.1284 6.41232 15.4961C6.37467 16.0881 6.41221 16.2759 6.68507 16.859C7.24848 18.063 8.04368 18.7388 9.51141 19.261C11.0232 19.7989 13.3501 19.6006 14.778 18.8122C15.1759 18.5923 15.243 18.5841 15.5064 18.722C15.7154 18.8315 15.7754 18.9239 15.7212 19.0528C15.2826 20.0957 14.8733 21.8577 14.7613 23.1851C14.6927 23.9992 14.703 24.0615 14.9538 24.3531C15.1558 24.5879 15.311 24.661 15.6082 24.661C16.2266 24.661 16.428 24.3745 16.5316 23.3467C16.6469 22.2029 16.7996 21.4487 17.1349 20.3685L17.4109 19.4787L17.7953 19.5404C19.6831 19.8437 21.6926 19.6787 22.8649 19.1242C24.0532 18.562 25.1096 17.1397 25.2475 15.9165C25.4106 14.4695 24.2808 13.3059 22.7202 13.3135C21.2764 13.3205 19.3647 14.1613 18.058 15.364L17.6165 15.7704L17.9182 14.8878C18.4091 13.4524 18.5865 12.3576 18.5267 11.1342C18.4343 9.24479 17.7556 8.08308 16.5335 7.72255C15.9102 7.53876 15.9116 7.53876 15.3529 7.65151ZM14.8449 11.2819C14.8984 10.3444 15.0006 10.0269 15.3848 9.605C15.505 9.47306 15.7067 9.365 15.8329 9.365C16.3974 9.365 16.7705 10.242 16.7609 11.5466C16.7523 12.7051 16.2155 14.9109 15.9358 14.9367C15.7289 14.9557 15.2431 13.9816 15.0209 13.1018C14.8429 12.3974 14.8041 11.9967 14.8449 11.2819ZM8.27397 16.0899C8.06704 15.5727 8.13552 15.3593 8.56891 15.1707C8.97861 14.9923 9.21637 14.9863 9.93435 15.1367C10.7593 15.3094 11.7722 15.8785 12.7137 16.698L13.5411 17.4183L12.927 17.6136C12.1854 17.8496 10.6797 17.8065 9.89211 17.5268C9.24187 17.2959 8.48901 16.6274 8.27397 16.0899ZM18.9735 17.024C19.7343 16.1938 20.4777 15.6926 21.4305 15.3678C22.1918 15.1082 23.1301 15.0515 23.3316 15.253C23.6297 15.5511 23.4441 16.2788 22.9169 16.8795C22.2618 17.6255 21.3585 17.9151 19.6991 17.911C18.2269 17.9074 18.1973 17.8711 18.9735 17.024Z" fill="white"/>
</svg>
